{"title":"18+ Bhadaas 2014 Hindi Movies DVDRip x264 AAC with Sample â˜»rDXâ˜»","uid":10593980,"size":740375302,"categoryP":"video","categoryS":"movies","magnet":"?xt=urn:btih:879c271c682dcf16ac12f8d53d64f16ad3cf75a7&amp;dn=18%2B+Bhadaas+2014+Hindi+Movies+DVDRip+x264+AAC+with+Sample+%E2%98%BBrDX%E2%98%BB&amp;tr=udp%3A%2F%2Ftracker.openbittorrent.com%3A80&amp;tr=udp%3A%2F%2Fopen.demonii.com%3A1337&amp;tr=udp%3A%2F%2Ftracker.coppersurfer.tk%3A6969&amp;tr=udp%3A%2F%2Fexodus.desync.com%3A6969","seeders":2,"leechers":4,"uploader":"basicssom","files":2,"time":1405840737,"description":"----------------------------------------------------------------\n18+ Bhadaas 2014 Hindi Movies DVDRip x264 AAC with Sample â˜»rDXâ˜»\n\nPOSTER:\n &lt;a href=&quot;\nhttp://istoreimg.com/upload/big/2014/07/20/53cb41a25ec47.jpg&quot; rel=&quot;nofollow&quot; target=&quot;_NEW&quot;&gt;\nhttp://istoreimg.com/upload/big/2014/07/20/53cb41a25ec47.jpg&lt;/a&gt;\n\nSCREEN SHOTS :\n &lt;a href=&quot;\nhttp://planethost.co.nr/7/Bhadaas/1.html&quot; rel=&quot;nofollow&quot; target=&quot;_NEW&quot;&gt;\nhttp://planethost.co.nr/7/Bhadaas/1.html&lt;/a&gt; &lt;a href=&quot;\nhttp://planethost.co.nr/7/Bhadaas/2.html&quot; rel=&quot;nofollow&quot; target=&quot;_NEW&quot;&gt;\nhttp://planethost.co.nr/7/Bhadaas/2.html&lt;/a&gt; &lt;a href=&quot;\nhttp://planethost.co.nr/7/Bhadaas/3.html&quot; rel=&quot;nofollow&quot; target=&quot;_NEW&quot;&gt;\nhttp://planethost.co.nr/7/Bhadaas/3.html&lt;/a&gt; &lt;a href=&quot;\nhttp://planethost.co.nr/7/Bhadaas/4.html&quot; rel=&quot;nofollow&quot; target=&quot;_NEW&quot;&gt;\nhttp://planethost.co.nr/7/Bhadaas/4.html&lt;/a&gt; &lt;a href=&quot;\nhttp://planethost.co.nr/7/Bhadaas/5.html&quot; rel=&quot;nofollow&quot; target=&quot;_NEW&quot;&gt;\nhttp://planethost.co.nr/7/Bhadaas/5.html&lt;/a&gt; &lt;a href=&quot;\nhttp://planethost.co.nr/7/Bhadaas/6.html&quot; rel=&quot;nofollow&quot; target=&quot;_NEW&quot;&gt;\nhttp://planethost.co.nr/7/Bhadaas/6.html&lt;/a&gt; &lt;a href=&quot;\nhttp://planethost.co.nr/7/Bhadaas/7.html&quot; rel=&quot;nofollow&quot; target=&quot;_NEW&quot;&gt;\nhttp://planethost.co.nr/7/Bhadaas/7.html&lt;/a&gt; &lt;a href=&quot;\nhttp://planethost.co.nr/7/Bhadaas/8.html&quot; rel=&quot;nofollow&quot; target=&quot;_NEW&quot;&gt;\nhttp://planethost.co.nr/7/Bhadaas/8.html&lt;/a&gt; &lt;a href=&quot;\nhttp://planethost.co.nr/7/Bhadaas/9.html&quot; rel=&quot;nofollow&quot; target=&quot;_NEW&quot;&gt;\nhttp://planethost.co.nr/7/Bhadaas/9.html&lt;/a&gt; &lt;a href=&quot;\nhttp://planethost.co.nr/7/Bhadaas/10.html&quot; rel=&quot;nofollow&quot; target=&quot;_NEW&quot;&gt;\nhttp://planethost.co.nr/7/Bhadaas/10.html&lt;/a&gt;\n\nFile size                                : 700 MiB\nDuration                                 : 35mn 31s\nOverall bit rate                         : 2 755 Kbps\n\nVideo\nFormat                                   : AVC\nFormat/Info                              : Advanced Video Codec\nFormat profile                           : &lt;a class=&quot;__cf_email__&quot; href=&quot;/cdn-cgi/l/email-protection&quot; data-cfemail=&quot;1850717f7058542a3629&quot;&gt;[email&amp;#160;protected]&lt;/a&gt;&lt;script cf-hash='f9e31' type=&quot;text/javascript&quot;&gt;\n/* &lt;![CDATA[ */!function(){try{var t=&quot;currentScript&quot;in document?document.currentScript:function(){for(var t=document.getElementsByTagName(&quot;script&quot;),e=t.length;e--;)if(t[e].getAttribute(&quot;cf-hash&quot;))return t[e]}();if(t&amp;&amp;t.previousSibling){var e,r,n,i,c=t.previousSibling,a=c.getAttribute(&quot;data-cfemail&quot;);if(a){for(e=&quot;&quot;,r=parseInt(a.substr(0,2),16),n=2;a.length-n;n+=2)i=parseInt(a.substr(n,2),16)^r,e+=String.fromCharCode(i);e=document.createTextNode(e),c.parentNode.replaceChild(e,c)}}}catch(u){}}();/* ]]&gt; */&lt;/script&gt;\nFormat settings, CABAC                   : Yes\nFormat settings, ReFrames                : 4 frames\nCodec ID                                 : 7\nDuration                                 : 35mn 31s\nBit rate                                 : 984 Kbps\nWidth                                    : 640 pixels\nHeight                                   : 272 pixels\nDisplay aspect ratio                     : 2.35:1\nFrame rate mode                          : Constant\nFrame rate                               : 24.000 fps\nColor space                              : YUV\nChroma subsampling                       : 4:2:0\nBit depth                                : 8 bits\nScan type                                : Progressive\nBits/(Pixel*Frame)                       : 0.236\nStream size                              : 617 MiB (88%)\nWriting library                          : x264\n\nAudio\nFormat                                   : AAC\nFormat/Info                              : Advanced Audio Codec\nFormat profile                           : LC\nCodec ID                                 : 10\nDuration                                 : 35mn 31s\nBit rate                                 : 94.4 Kbps\nChannel(s)                               : 2 channels\nChannel positions                        : Front: L R\nSampling rate                            : 44.1 KHz\nCompression mode                         : Lossy\nStream size                              : 63.6 MiB (9%)","torrent":{"xt":"urn:btih:879c271c682dcf16ac12f8d53d64f16ad3cf75a7","amp;dn":"18%2B+Bhadaas+2014+Hindi+Movies+DVDRip+x264+AAC+with+Sample+%E2%98%BBrDX%E2%98%BB","amp;tr":["udp%3A%2F%2Ftracker.openbittorrent.com%3A80","udp%3A%2F%2Fopen.demonii.com%3A1337","udp%3A%2F%2Ftracker.coppersurfer.tk%3A6969","udp%3A%2F%2Fexodus.desync.com%3A6969"],"infoHash":"879c271c682dcf16ac12f8d53d64f16ad3cf75a7","infoHashBuffer":{"type":"Buffer","data":[135,156,39,28,104,45,207,22,172,18,248,213,61,100,241,106,211,207,117,167]},"announce":[],"urlList":[]}}